<svg width="21" height="21" viewBox="0 0 21 21" fill="none" xmlns="http://www.w3.org/2000/svg">
<path d="M18.6706 8.86727H17.9993V8.83268H10.4993V12.166H15.2089C14.5218 14.1064 12.6756 15.4993 10.4993 15.4993C7.7381 15.4993 5.49935 13.2606 5.49935 10.4993C5.49935 7.7381 7.7381 5.49935 10.4993 5.49935C11.7739 5.49935 12.9335 5.98018 13.8164 6.7656L16.1735 4.40852C14.6852 3.02143 12.6943 2.16602 10.4993 2.16602C5.89727 2.16602 2.16602 5.89727 2.16602 10.4993C2.16602 15.1014 5.89727 18.8327 10.4993 18.8327C15.1014 18.8327 18.8327 15.1014 18.8327 10.4993C18.8327 9.9406 18.7752 9.39518 18.6706 8.86727Z" fill="#FFC107"/>
<path d="M3.12695 6.6206L5.86487 8.62852C6.6057 6.79435 8.39987 5.49935 10.4995 5.49935C11.774 5.49935 12.9336 5.98018 13.8165 6.7656L16.1736 4.40852C14.6853 3.02143 12.6945 2.16602 10.4995 2.16602C7.29862 2.16602 4.52279 3.9731 3.12695 6.6206Z" fill="#FF3D00"/>
<path d="M10.5008 18.8336C12.6533 18.8336 14.6091 18.0099 16.0879 16.6703L13.5087 14.4878C12.6441 15.1457 11.5873 15.5015 10.5008 15.5003C8.33328 15.5003 6.49286 14.1182 5.79953 12.1895L3.08203 14.2832C4.4612 16.982 7.26203 18.8336 10.5008 18.8336Z" fill="#4CAF50"/>
<path d="M18.6712 8.86857H18V8.83398H10.5V12.1673H15.2096C14.8809 13.0908 14.2889 13.8978 13.5067 14.4886L13.5079 14.4877L16.0871 16.6702C15.9046 16.8361 18.8333 14.6673 18.8333 10.5007C18.8333 9.9419 18.7758 9.39648 18.6712 8.86857Z" fill="#1976D2"/>
</svg>
