<svg width="300" height="300" viewBox="0 0 300 300" fill="none" xmlns="http://www.w3.org/2000/svg">
<path d="M211.162 211.5L249.662 250M262.5 37.5L37.5 262.5M237.5 143.75C237.5 168.614 227.623 192.46 210.041 210.041C192.46 227.623 168.614 237.5 143.75 237.5C118.886 237.5 95.0403 227.623 77.4587 210.041C59.8772 192.46 50 168.614 50 143.75C50 118.886 59.8772 95.0403 77.4587 77.4587C95.0403 59.8772 118.886 50 143.75 50C168.614 50 192.46 59.8772 210.041 77.4587C227.623 95.0403 237.5 118.886 237.5 143.75Z" stroke="#D9D9D9" stroke-width="20" stroke-linecap="round" stroke-linejoin="round"/>
</svg>
