<svg width="20" height="20" viewBox="0 0 20 20" fill="none" xmlns="http://www.w3.org/2000/svg">
<path d="M17.0579 7.83898C17.082 8.57565 17.082 9.42732 17.082 10.4173C17.082 13.9532 17.082 15.7207 15.9837 16.819C14.8854 17.9173 13.117 17.9173 9.58203 17.9173C6.04703 17.9173 4.2787 17.9173 3.18036 16.819C2.08203 15.7207 2.08203 13.9523 2.08203 10.4173C2.08203 6.88232 2.08203 5.11398 3.18036 4.01565C4.2787 2.91732 6.04703 2.91732 9.58203 2.91732C10.572 2.91732 11.4237 2.91732 12.1604 2.94148M17.9154 3.75065C17.9154 4.19268 17.7398 4.6166 17.4272 4.92916C17.1146 5.24172 16.6907 5.41732 16.2487 5.41732C15.8067 5.41732 15.3827 5.24172 15.0702 4.92916C14.7576 4.6166 14.582 4.19268 14.582 3.75065C14.582 3.30862 14.7576 2.8847 15.0702 2.57214C15.3827 2.25958 15.8067 2.08398 16.2487 2.08398C16.6907 2.08398 17.1146 2.25958 17.4272 2.57214C17.7398 2.8847 17.9154 3.30862 17.9154 3.75065Z" stroke="#4CAF50" stroke-width="1.25" stroke-linecap="round" stroke-linejoin="round"/>
<path d="M5.41406 12.0833L7.74156 9.75583C7.89784 9.59961 8.10976 9.51184 8.33073 9.51184C8.5517 9.51184 8.76362 9.59961 8.9199 9.75583L10.2416 11.0775C10.3978 11.2337 10.6098 11.3215 10.8307 11.3215C11.0517 11.3215 11.2636 11.2337 11.4199 11.0775L13.7474 8.75" stroke="#4CAF50" stroke-width="1.25" stroke-linecap="round" stroke-linejoin="round"/>
</svg>
