<svg width="21" height="20" viewBox="0 0 21 20" fill="none" xmlns="http://www.w3.org/2000/svg">
<path d="M17.5579 7.83898C17.582 8.57565 17.582 9.42732 17.582 10.4173C17.582 13.9532 17.582 15.7207 16.4837 16.819C15.3854 17.9173 13.617 17.9173 10.082 17.9173C6.54703 17.9173 4.7787 17.9173 3.68036 16.819C2.58203 15.7207 2.58203 13.9523 2.58203 10.4173C2.58203 6.88232 2.58203 5.11398 3.68036 4.01565C4.7787 2.91732 6.54703 2.91732 10.082 2.91732C11.072 2.91732 11.9237 2.91732 12.6604 2.94148M18.4154 3.75065C18.4154 4.19268 18.2398 4.6166 17.9272 4.92916C17.6146 5.24172 17.1907 5.41732 16.7487 5.41732C16.3067 5.41732 15.8827 5.24172 15.5702 4.92916C15.2576 4.6166 15.082 4.19268 15.082 3.75065C15.082 3.30862 15.2576 2.8847 15.5702 2.57214C15.8827 2.25958 16.3067 2.08398 16.7487 2.08398C17.1907 2.08398 17.6146 2.25958 17.9272 2.57214C18.2398 2.8847 18.4154 3.30862 18.4154 3.75065Z" stroke="#A1A1A1" stroke-width="1.25" stroke-linecap="round" stroke-linejoin="round"/>
<path d="M5.91406 12.0833L8.24156 9.75583C8.39784 9.59961 8.60976 9.51184 8.83073 9.51184C9.0517 9.51184 9.26362 9.59961 9.4199 9.75583L10.7416 11.0775C10.8978 11.2337 11.1098 11.3215 11.3307 11.3215C11.5517 11.3215 11.7636 11.2337 11.9199 11.0775L14.2474 8.75" stroke="#A1A1A1" stroke-width="1.25" stroke-linecap="round" stroke-linejoin="round"/>
</svg>
