<svg width="25" height="25" viewBox="0 0 25 25" fill="none" xmlns="http://www.w3.org/2000/svg">
<path fill-rule="evenodd" clip-rule="evenodd" d="M13.125 11.9829L17.1782 16.0361L16.2948 16.9204L11.875 12.5007V6.25065H13.125V11.9829ZM12.5 22.9173C6.74692 22.9173 2.08337 18.2538 2.08337 12.5007C2.08337 6.74753 6.74692 2.08398 12.5 2.08398C18.2532 2.08398 22.9167 6.74753 22.9167 12.5007C22.9167 18.2538 18.2532 22.9173 12.5 22.9173ZM12.5 21.6673C14.9312 21.6673 17.2628 20.7015 18.9819 18.9825C20.7009 17.2634 21.6667 14.9318 21.6667 12.5007C21.6667 10.0695 20.7009 7.73792 18.9819 6.01884C17.2628 4.29976 14.9312 3.33398 12.5 3.33398C10.0689 3.33398 7.73731 4.29976 6.01823 6.01884C4.29914 7.73792 3.33337 10.0695 3.33337 12.5007C3.33337 14.9318 4.29914 17.2634 6.01823 18.9825C7.73731 20.7015 10.0689 21.6673 12.5 21.6673Z" fill="#4CAF50"/>
</svg>
