<svg width="25" height="25" viewBox="0 0 25 25" fill="none" xmlns="http://www.w3.org/2000/svg">
<path d="M16.6666 1.04102H18.75V2.08268H16.6666V1.04102ZM22.9166 5.20768V4.16602H19.7916V2.08268H18.75V7.29101H16.6666V2.08268H15.625V4.16602H9.37496V2.08268H8.33329V7.29101H6.24996V2.08268H5.20829V4.16602H2.08329V5.20768H1.04163V22.916H2.08329V23.9577H22.9166V22.916H23.9583V5.20768H22.9166ZM2.08329 6.24935H3.12496V5.20768H5.20829V7.29101H2.08329V6.24935ZM6.24996 22.916H3.12496V21.8743H2.08329V18.7493H6.24996V22.916ZM6.24996 17.7077H2.08329V13.541H6.24996V17.7077ZM6.24996 12.4993H2.08329V8.33268H6.24996V12.4993ZM17.7083 8.33268V12.4993H13.5416V8.33268H17.7083ZM17.7083 17.7077H13.5416V13.541H17.7083V17.7077ZM9.37496 5.20768H15.625V7.29101H9.37496V5.20768ZM11.4583 22.916H7.29163V18.7493H11.4583V22.916ZM11.4583 17.7077H7.29163V13.541H11.4583V17.7077ZM11.4583 12.4993H7.29163V8.33268H11.4583V12.4993ZM13.5416 22.916V18.7493H17.7083V22.916H13.5416ZM22.9166 21.8743H21.875V22.916H18.75V18.7493H22.9166V21.8743ZM22.9166 17.7077H18.75V13.541H22.9166V17.7077ZM22.9166 12.4993H18.75V8.33268H22.9166V12.4993ZM22.9166 7.29101H19.7916V5.20768H21.875V6.24935H22.9166V7.29101ZM6.24996 1.04102H8.33329V2.08268H6.24996V1.04102Z" fill="#4CAF50"/>
</svg>
