<svg width="25" height="25" viewBox="0 0 25 25" fill="none" xmlns="http://www.w3.org/2000/svg">
<path d="M6.02668 2.67773C5.13868 2.67773 4.28705 3.03049 3.65914 3.6584C3.03122 4.28632 2.67847 5.13795 2.67847 6.02595V18.9724C2.67847 19.8604 3.03122 20.712 3.65914 21.3399C4.28705 21.9678 5.13868 22.3206 6.02668 22.3206H18.9731C19.8611 22.3206 20.7127 21.9678 21.3407 21.3399C21.9686 20.712 22.3213 19.8604 22.3213 18.9724V6.02595C22.3213 5.13795 21.9686 4.28632 21.3407 3.6584C20.7127 3.03049 19.8611 2.67773 18.9731 2.67773H6.02668ZM4.01775 6.02595C4.01775 5.49315 4.22941 4.98217 4.60615 4.60542C4.9829 4.22867 5.49388 4.01702 6.02668 4.01702H12.0535V8.48131H4.01775V6.02595ZM4.01775 9.82059H12.0535V20.9813H6.02668C5.49388 20.9813 4.9829 20.7697 4.60615 20.3929C4.22941 20.0162 4.01775 19.5052 4.01775 18.9724V9.82059ZM13.3928 20.9813V16.0706H20.982V18.9724C20.982 19.5052 20.7704 20.0162 20.3936 20.3929C20.0169 20.7697 19.5059 20.9813 18.9731 20.9813H13.3928ZM20.982 14.7313H13.3928V4.01702H18.9731C19.5059 4.01702 20.0169 4.22867 20.3936 4.60542C20.7704 4.98217 20.982 5.49315 20.982 6.02595V14.7313Z" fill="#4CAF50"/>
</svg>
