<svg width="50" height="50" viewBox="0 0 50 50" fill="none" xmlns="http://www.w3.org/2000/svg">
<path d="M4.6875 9.375C4.6875 8.1318 5.18136 6.93951 6.06044 6.06044C6.93951 5.18136 8.1318 4.6875 9.375 4.6875H21.875C23.1182 4.6875 24.3105 5.18136 25.1896 6.06044C26.0686 6.93951 26.5625 8.1318 26.5625 9.375V23.4375C26.5625 23.8519 26.3979 24.2493 26.1049 24.5424C25.8118 24.8354 25.4144 25 25 25H6.25C5.8356 25 5.43817 24.8354 5.14515 24.5424C4.85212 24.2493 4.6875 23.8519 4.6875 23.4375V9.375Z" fill="url(#paint0_linear_8034_3515)"/>
<path d="M40.625 23.4375C41.8682 23.4375 43.0605 23.9314 43.9396 24.8104C44.8186 25.6895 45.3125 26.8818 45.3125 28.125V40.625C45.3125 41.8682 44.8186 43.0605 43.9396 43.9396C43.0605 44.8186 41.8682 45.3125 40.625 45.3125H25C24.5856 45.3125 24.1882 45.1479 23.8951 44.8549C23.6021 44.5618 23.4375 44.1644 23.4375 43.75V25C23.4375 24.5856 23.6021 24.1882 23.8951 23.8951C24.1882 23.6021 24.5856 23.4375 25 23.4375H40.625Z" fill="url(#paint1_linear_8034_3515)"/>
<path d="M26.5625 43.75C26.5625 44.1644 26.3979 44.5618 26.1049 44.8549C25.8118 45.1479 25.4144 45.3125 25 45.3125H9.375C8.1318 45.3125 6.93951 44.8186 6.06044 43.9396C5.18136 43.0605 4.6875 41.8682 4.6875 40.625V25C4.6875 24.5856 4.85212 24.1882 5.14515 23.8951C5.43817 23.6021 5.8356 23.4375 6.25 23.4375H25C25.4144 23.4375 25.8118 23.6021 26.1049 23.8951C26.3979 24.1882 26.5625 24.5856 26.5625 25V43.75Z" fill="url(#paint2_linear_8034_3515)"/>
<path d="M31.5626 4.61493C32.0342 4.1432 32.594 3.76898 33.2103 3.51367C33.8265 3.25836 34.487 3.12695 35.154 3.12695C35.821 3.12695 36.4815 3.25836 37.0977 3.51367C37.7139 3.76898 38.2738 4.1432 38.7454 4.61493L45.3829 11.2556C46.3347 12.2078 46.8693 13.4991 46.8693 14.8454C46.8693 16.1917 46.3347 17.483 45.3829 18.4352L38.7423 25.0727C37.79 26.025 36.4984 26.5599 35.1517 26.5599C33.8049 26.5599 32.5133 26.025 31.561 25.0727L24.922 18.4321C23.9702 17.4799 23.4355 16.1886 23.4355 14.8423C23.4355 13.4959 23.9702 12.2047 24.922 11.2524L31.5626 4.61493Z" fill="url(#paint3_linear_8034_3515)"/>
<defs>
<linearGradient id="paint0_linear_8034_3515" x1="4.6875" y1="4.6875" x2="24.9438" y2="26.5031" gradientUnits="userSpaceOnUse">
<stop stop-color="#B9C0C7"/>
<stop offset="1" stop-color="#889096"/>
</linearGradient>
<linearGradient id="paint1_linear_8034_3515" x1="45.3125" y1="43.75" x2="25" y2="23.4375" gradientUnits="userSpaceOnUse">
<stop stop-color="#63686E"/>
<stop offset="1" stop-color="#889096"/>
</linearGradient>
<linearGradient id="paint2_linear_8034_3515" x1="4.6875" y1="23.4375" x2="26.5625" y2="37.5" gradientUnits="userSpaceOnUse">
<stop stop-color="#55595E"/>
<stop offset="1" stop-color="#383B3D"/>
</linearGradient>
<linearGradient id="paint3_linear_8034_3515" x1="42.8079" y1="21.2899" x2="29.536" y2="4.91493" gradientUnits="userSpaceOnUse">
<stop stop-color="#2764E7"/>
<stop offset="1" stop-color="#36DFF1"/>
</linearGradient>
</defs>
</svg>
