<svg width="20" height="20" viewBox="0 0 20 20" fill="none" xmlns="http://www.w3.org/2000/svg">
<path d="M5.9737 2.70898H10.6904C11.1362 2.70898 11.507 2.70898 11.8112 2.73398C12.1279 2.75898 12.4245 2.81565 12.7054 2.95898C13.1367 3.17871 13.4873 3.52936 13.707 3.96065C13.8504 4.24148 13.907 4.53815 13.932 4.85482C13.957 5.15898 13.957 5.52982 13.957 5.97565V8.54232C13.957 8.70808 13.8912 8.86705 13.774 8.98426C13.6568 9.10147 13.4978 9.16732 13.332 9.16732C13.1663 9.16732 13.0073 9.10147 12.8901 8.98426C12.7729 8.86705 12.707 8.70808 12.707 8.54232V6.00065C12.707 5.52398 12.707 5.20315 12.6862 4.95648C12.667 4.71732 12.632 4.60315 12.5937 4.52815C12.494 4.33196 12.3347 4.17238 12.1387 4.07232C12.0629 4.03398 11.9487 3.99898 11.7095 3.97982C11.4629 3.95982 11.1429 3.95898 10.6654 3.95898H5.9987C5.52203 3.95898 5.2012 3.95898 4.95453 3.97982C4.71536 3.99898 4.6012 4.03398 4.5262 4.07232C4.32988 4.17224 4.17029 4.33183 4.07036 4.52815C4.03203 4.60315 3.99703 4.71732 3.97786 4.95648C3.95786 5.20315 3.95703 5.52315 3.95703 6.00065V14.0007C3.95703 14.4773 3.95703 14.7982 3.97786 15.044C3.99703 15.284 4.03203 15.3982 4.07036 15.4732C4.16536 15.659 4.31203 15.8115 4.4937 15.9115C4.50703 15.9148 4.53648 15.9201 4.58203 15.9273C4.67925 15.9418 4.81148 15.9551 4.9787 15.9673C5.31036 15.9923 5.73703 16.009 6.19036 16.0198C7.09453 16.0423 8.0737 16.0423 8.54036 16.0423C8.70612 16.0423 8.8651 16.1082 8.98231 16.2254C9.09952 16.3426 9.16536 16.5016 9.16536 16.6673C9.16536 16.8331 9.09952 16.992 8.98231 17.1093C8.8651 17.2265 8.70612 17.2923 8.54036 17.2923H8.5387C8.07203 17.2923 7.08036 17.2923 6.15953 17.2698C5.73499 17.261 5.31071 17.2424 4.88703 17.214C4.72397 17.2033 4.56136 17.1866 4.39953 17.164C4.24695 17.1463 4.09799 17.1052 3.95786 17.0423C3.52713 16.8229 3.17682 16.4729 2.95703 16.0423C2.8137 15.7607 2.75703 15.464 2.73203 15.1473C2.70703 14.8432 2.70703 14.4723 2.70703 14.0265V5.97565C2.70703 5.52982 2.70703 5.15898 2.73203 4.85482C2.75703 4.53815 2.8137 4.24148 2.95703 3.96065C3.17676 3.52936 3.5274 3.17871 3.9587 2.95898C4.23953 2.81565 4.5362 2.75898 4.85286 2.73398C5.15703 2.70898 5.52786 2.70898 5.9737 2.70898Z" fill="#A1A1A1"/>
<path d="M11.9771 10.209H15.5255C15.8546 10.209 16.1388 10.209 16.373 10.2282C16.6205 10.2482 16.8663 10.2932 17.1021 10.4132C17.4555 10.5932 17.7421 10.8798 17.9221 11.2332C18.0421 11.469 18.0871 11.7148 18.1071 11.9623C18.1263 12.1957 18.1263 12.4807 18.1263 12.8098V14.6915C18.1263 15.0207 18.1263 15.3048 18.1071 15.539C18.0942 15.7919 18.0314 16.0397 17.9221 16.2682C17.7425 16.6211 17.4558 16.9082 17.103 17.0882C16.8663 17.2081 16.6196 17.2531 16.373 17.2732C16.1396 17.2923 15.8546 17.2923 15.5255 17.2923H11.9763C11.6471 17.2923 11.363 17.2923 11.1288 17.2732C10.8759 17.2603 10.6281 17.1974 10.3996 17.0882C10.0466 16.9086 9.75959 16.6218 9.57964 16.269C9.4703 16.0403 9.40742 15.7922 9.39464 15.539C9.37547 15.3057 9.37547 15.0207 9.37547 14.6915V12.809C9.37547 12.4798 9.37547 12.1957 9.39464 11.9615C9.40753 11.7086 9.47041 11.4608 9.57964 11.2323C9.75945 10.8792 10.0465 10.5921 10.3996 10.4123C10.6281 10.3031 10.8759 10.2402 11.1288 10.2273C11.3621 10.2082 11.6471 10.2082 11.9763 10.2082M11.2305 11.4732C11.0605 11.4873 10.9971 11.5107 10.9663 11.5265C10.849 11.5863 10.7537 11.6817 10.6938 11.799C10.6771 11.8307 10.6546 11.8932 10.6405 12.0632L10.6388 12.0832H16.8621L16.8605 12.0632C16.8463 11.8932 16.823 11.8298 16.8071 11.799C16.7471 11.6816 16.6514 11.5862 16.5338 11.5265C16.503 11.5098 16.4405 11.4873 16.2705 11.4732C16.0141 11.459 15.7572 11.454 15.5005 11.4582H12.0005C11.6405 11.4582 11.4071 11.4582 11.2305 11.4732ZM16.8763 13.7507H10.6263V14.6673C10.6263 15.0273 10.6263 15.2607 10.6413 15.4373C10.6555 15.6073 10.6788 15.6707 10.6946 15.7007C10.7544 15.8182 10.8497 15.9139 10.9671 15.974C10.9988 15.9907 11.0613 16.0132 11.2313 16.0273C11.408 16.0415 11.6413 16.0423 12.0013 16.0423H15.5013C15.8613 16.0423 16.0946 16.0423 16.2713 16.0273C16.4413 16.0132 16.5046 15.9898 16.5346 15.974C16.6523 15.914 16.748 15.8184 16.808 15.7007C16.8246 15.6698 16.8471 15.6073 16.8613 15.4373C16.8755 15.2607 16.8763 15.0273 16.8763 14.6673V13.7507ZM5.41797 5.20898C5.25221 5.20898 5.09324 5.27483 4.97603 5.39204C4.85882 5.50925 4.79297 5.66822 4.79297 5.83398C4.79297 5.99974 4.85882 6.15872 4.97603 6.27593C5.09324 6.39314 5.25221 6.45898 5.41797 6.45898H8.7513C8.91706 6.45898 9.07603 6.39314 9.19324 6.27593C9.31045 6.15872 9.3763 5.99974 9.3763 5.83398C9.3763 5.66822 9.31045 5.50925 9.19324 5.39204C9.07603 5.27483 8.91706 5.20898 8.7513 5.20898H5.41797ZM4.79297 8.33398C4.79297 8.16822 4.85882 8.00925 4.97603 7.89204C5.09324 7.77483 5.25221 7.70898 5.41797 7.70898H11.2513C11.4171 7.70898 11.576 7.77483 11.6932 7.89204C11.8105 8.00925 11.8763 8.16822 11.8763 8.33398C11.8763 8.49974 11.8105 8.65872 11.6932 8.77593C11.576 8.89314 11.4171 8.95898 11.2513 8.95898H5.41797C5.25221 8.95898 5.09324 8.89314 4.97603 8.77593C4.85882 8.65872 4.79297 8.49974 4.79297 8.33398ZM5.41797 10.209C5.25221 10.209 5.09324 10.2748 4.97603 10.392C4.85882 10.5093 4.79297 10.6682 4.79297 10.834C4.79297 10.9997 4.85882 11.1587 4.97603 11.2759C5.09324 11.3931 5.25221 11.459 5.41797 11.459H8.33464C8.5004 11.459 8.65937 11.3931 8.77658 11.2759C8.89379 11.1587 8.95964 10.9997 8.95964 10.834C8.95964 10.6682 8.89379 10.5093 8.77658 10.392C8.65937 10.2748 8.5004 10.209 8.33464 10.209H5.41797ZM4.79297 14.1673C4.79297 14.0016 4.85882 13.8426 4.97603 13.7254C5.09324 13.6082 5.25221 13.5423 5.41797 13.5423H7.08464C7.2504 13.5423 7.40937 13.6082 7.52658 13.7254C7.64379 13.8426 7.70964 14.0016 7.70964 14.1673C7.70964 14.3331 7.64379 14.492 7.52658 14.6093C7.40937 14.7265 7.2504 14.7923 7.08464 14.7923H5.41797C5.25221 14.7923 5.09324 14.7265 4.97603 14.6093C4.85882 14.492 4.79297 14.3331 4.79297 14.1673Z" fill="#A1A1A1"/>
</svg>
