<svg width="25" height="25" viewBox="0 0 25 25" fill="none" xmlns="http://www.w3.org/2000/svg">
<path d="M6.02693 2.67773C5.13892 2.67773 4.28729 3.03049 3.65938 3.6584C3.03147 4.28632 2.67871 5.13795 2.67871 6.02595V18.9724C2.67871 19.8604 3.03147 20.712 3.65938 21.3399C4.28729 21.9678 5.13892 22.3206 6.02693 22.3206H18.9734C19.8614 22.3206 20.713 21.9678 21.3409 21.3399C21.9688 20.712 22.3216 19.8604 22.3216 18.9724V6.02595C22.3216 5.13795 21.9688 4.28632 21.3409 3.6584C20.713 3.03049 19.8614 2.67773 18.9734 2.67773H6.02693ZM4.018 6.02595C4.018 5.49315 4.22965 4.98217 4.6064 4.60542C4.98315 4.22867 5.49412 4.01702 6.02693 4.01702H12.0537V8.48131H4.018V6.02595ZM4.018 9.82059H12.0537V20.9813H6.02693C5.49412 20.9813 4.98315 20.7697 4.6064 20.3929C4.22965 20.0162 4.018 19.5052 4.018 18.9724V9.82059ZM13.393 20.9813V16.0706H20.9823V18.9724C20.9823 19.5052 20.7706 20.0162 20.3939 20.3929C20.0171 20.7697 19.5062 20.9813 18.9734 20.9813H13.393ZM20.9823 14.7313H13.393V4.01702H18.9734C19.5062 4.01702 20.0171 4.22867 20.3939 4.60542C20.7706 4.98217 20.9823 5.49315 20.9823 6.02595V14.7313Z" fill="#71717A"/>
</svg>
