<svg width="20" height="21" viewBox="0 0 20 21" fill="none" xmlns="http://www.w3.org/2000/svg">
<rect x="0.5" y="1" width="19" height="19" rx="9.5" fill="#DDDDDD" fill-opacity="0.5"/>
<rect x="0.5" y="1" width="19" height="19" rx="9.5" stroke="#333333"/>
<path d="M13.75 6.5H12.25V5.75C12.25 5.6837 12.2237 5.62011 12.1768 5.57322C12.1299 5.52634 12.0663 5.5 12 5.5C11.9337 5.5 11.8701 5.52634 11.8232 5.57322C11.7763 5.62011 11.75 5.6837 11.75 5.75V6.5H8.25V5.75C8.25 5.6837 8.22366 5.62011 8.17678 5.57322C8.12989 5.52634 8.0663 5.5 8 5.5C7.9337 5.5 7.87011 5.52634 7.82322 5.57322C7.77634 5.62011 7.75 5.6837 7.75 5.75V6.5H6.25C5.9186 6.5004 5.60089 6.63222 5.36655 6.86655C5.13222 7.10089 5.0004 7.4186 5 7.75V14.25C5.0004 14.5814 5.13222 14.8991 5.36655 15.1334C5.60089 15.3678 5.9186 15.4996 6.25 15.5H13.75C14.0815 15.5 14.3995 15.3683 14.6339 15.1339C14.8683 14.8995 15 14.5815 15 14.25V7.75C15 7.41848 14.8683 7.10054 14.6339 6.86612C14.3995 6.6317 14.0815 6.5 13.75 6.5ZM14.5 14.25C14.5 14.4489 14.421 14.6397 14.2803 14.7803C14.1397 14.921 13.9489 15 13.75 15H6.25C6.05109 15 5.86032 14.921 5.71967 14.7803C5.57902 14.6397 5.5 14.4489 5.5 14.25V10H14.5V14.25ZM14.5 9.5H5.5V7.75C5.5 7.336 5.835 7 6.25 7H7.75V7.75C7.75 7.8163 7.77634 7.87989 7.82322 7.92678C7.87011 7.97366 7.9337 8 8 8C8.0663 8 8.12989 7.97366 8.17678 7.92678C8.22366 7.87989 8.25 7.8163 8.25 7.75V7H11.75V7.75C11.75 7.8163 11.7763 7.87989 11.8232 7.92678C11.8701 7.97366 11.9337 8 12 8C12.0663 8 12.1299 7.97366 12.1768 7.92678C12.2237 7.87989 12.25 7.8163 12.25 7.75V7H13.75C13.9489 7 14.1397 7.07902 14.2803 7.21967C14.421 7.36032 14.5 7.55109 14.5 7.75V9.5Z" fill="#333333"/>
</svg>
