<svg width="25" height="25" viewBox="0 0 25 25" fill="none" xmlns="http://www.w3.org/2000/svg">
<path d="M16.6665 1.04102H18.7498V2.08268H16.6665V1.04102ZM22.9165 5.20768V4.16602H19.7915V2.08268H18.7498V7.29101H16.6665V2.08268H15.6248V4.16602H9.37484V2.08268H8.33317V7.29101H6.24984V2.08268H5.20817V4.16602H2.08317V5.20768H1.0415V22.916H2.08317V23.9577H22.9165V22.916H23.9582V5.20768H22.9165ZM2.08317 6.24935H3.12484V5.20768H5.20817V7.29101H2.08317V6.24935ZM6.24984 22.916H3.12484V21.8743H2.08317V18.7493H6.24984V22.916ZM6.24984 17.7077H2.08317V13.541H6.24984V17.7077ZM6.24984 12.4993H2.08317V8.33268H6.24984V12.4993ZM17.7082 8.33268V12.4993H13.5415V8.33268H17.7082ZM17.7082 17.7077H13.5415V13.541H17.7082V17.7077ZM9.37484 5.20768H15.6248V7.29101H9.37484V5.20768ZM11.4582 22.916H7.2915V18.7493H11.4582V22.916ZM11.4582 17.7077H7.2915V13.541H11.4582V17.7077ZM11.4582 12.4993H7.2915V8.33268H11.4582V12.4993ZM13.5415 22.916V18.7493H17.7082V22.916H13.5415ZM22.9165 21.8743H21.8748V22.916H18.7498V18.7493H22.9165V21.8743ZM22.9165 17.7077H18.7498V13.541H22.9165V17.7077ZM22.9165 12.4993H18.7498V8.33268H22.9165V12.4993ZM22.9165 7.29101H19.7915V5.20768H21.8748V6.24935H22.9165V7.29101ZM6.24984 1.04102H8.33317V2.08268H6.24984V1.04102Z" fill="#71717A"/>
</svg>
