<svg width="20" height="20" viewBox="0 0 20 20" fill="none" xmlns="http://www.w3.org/2000/svg">
<path d="M5.10953 17.5002C4.12786 17.5002 3.33203 16.6836 3.33203 15.6752V8.34023C3.33203 7.78606 3.57786 7.26106 3.9987 6.91523L8.88786 2.90023C9.20025 2.64155 9.59311 2.5 9.9987 2.5C10.4043 2.5 10.7971 2.64155 11.1095 2.90023L15.9979 6.91523C16.4195 7.26106 16.6654 7.78606 16.6654 8.34023V15.6752C16.6654 16.6836 15.8695 17.5002 14.8879 17.5002H5.10953Z" stroke="#A1A1A1" stroke-width="1.25" stroke-linecap="round" stroke-linejoin="round"/>
<path d="M7.91406 17.5V12.9167C7.91406 12.4746 8.08966 12.0507 8.40222 11.7382C8.71478 11.4256 9.1387 11.25 9.58073 11.25H10.4141C10.8561 11.25 11.28 11.4256 11.5926 11.7382C11.9051 12.0507 12.0807 12.4746 12.0807 12.9167V17.5" stroke="#A1A1A1" stroke-width="1.25" stroke-linecap="round" stroke-linejoin="round"/>
</svg>
