<svg width="20" height="20" viewBox="0 0 20 20" fill="none" xmlns="http://www.w3.org/2000/svg">
<path d="M5.49998 3C5.41357 2.99998 5.32863 3.02236 5.25345 3.06495C5.17826 3.10753 5.1154 3.16888 5.07098 3.243L2.07098 8.243C2.01773 8.33197 1.99345 8.4353 2.00151 8.53867C2.00958 8.64205 2.04958 8.74036 2.11598 8.82L9.61598 17.82C9.66291 17.8763 9.72163 17.9215 9.78798 17.9526C9.85434 17.9837 9.92671 17.9998 9.99998 17.9998C10.0733 17.9998 10.1456 17.9837 10.212 17.9526C10.2783 17.9215 10.3371 17.8763 10.384 17.82L17.884 8.82C17.9504 8.74036 17.9904 8.64205 17.9985 8.53867C18.0065 8.4353 17.9822 8.33197 17.929 8.243L14.929 3.243C14.8846 3.16888 14.8217 3.10753 14.7465 3.06495C14.6713 3.02236 14.5864 2.99998 14.5 3H5.49998ZM3.38298 8L5.78298 4H7.76198L6.16198 8H3.38298ZM6.15798 9L8.42498 14.829L3.56798 9H6.15798ZM9.99998 16.12L7.23098 9H12.769L9.99998 16.12ZM7.23898 8L8.83898 4H11.161L12.761 8H7.23898ZM13.839 8L12.239 4H14.217L16.617 8H13.839ZM13.842 9H16.432L11.575 14.829L13.842 9Z" fill="#CECE00"/>
</svg>
