<svg width="20" height="21" viewBox="0 0 20 21" fill="none" xmlns="http://www.w3.org/2000/svg">
<rect x="0.5" y="1" width="19" height="19" rx="9.5" fill="#DDDDDD" fill-opacity="0.5"/>
<rect x="0.5" y="1" width="19" height="19" rx="9.5" stroke="#333333"/>
<path d="M9.71429 7.07227H7.14286C6.83975 7.07227 6.54906 7.19267 6.33474 7.407C6.12041 7.62133 6 7.91202 6 8.21512V13.358C6 13.6611 6.12041 13.9518 6.33474 14.1661C6.54906 14.3804 6.83975 14.5008 7.14286 14.5008H12.8571C13.1602 14.5008 13.4509 14.3804 13.6653 14.1661C13.8796 13.9518 14 13.6611 14 13.358V10.7866" stroke="#333333" stroke-width="0.606061" stroke-linecap="round" stroke-linejoin="round"/>
<path d="M12.8566 7.64328L13.4012 8.21471M13.9994 6.48157C14.1521 6.63895 14.2366 6.85006 14.2348 7.06928C14.233 7.28849 14.1449 7.49817 13.9897 7.653L9.99944 11.6433L8.28516 12.2147L8.85658 10.5004L12.8492 6.47414C12.9896 6.33281 13.1774 6.24853 13.3763 6.23755C13.5752 6.22658 13.7712 6.28969 13.9263 6.41471L13.9994 6.48157Z" stroke="#333333" stroke-width="0.606061" stroke-linecap="round" stroke-linejoin="round"/>
</svg>
