<svg width="38" height="38" viewBox="0 0 38 38" fill="none" xmlns="http://www.w3.org/2000/svg">
<g filter="url(#filter0_d_8006_2795)">
<rect x="4" width="30" height="30" rx="3" fill="#295AD5"/>
<rect x="4.5" y="0.5" width="29" height="29" rx="2.5" stroke="#AAAAAA" stroke-opacity="0.3"/>
<path d="M24.6004 9.576V7.228C24.6004 6.439 22.0924 5 19.0004 5C15.9074 5 13.4004 6.439 13.4004 7.228V9.576C13.4004 11.717 17.2774 13.484 17.2774 15C17.2774 16.514 13.4004 18.281 13.4004 20.422V22.772C13.4004 23.56 15.9074 25 19.0004 25C22.0934 25 24.6004 23.56 24.6004 22.771V20.421C24.6004 18.28 20.7234 16.513 20.7234 14.999C20.7234 13.484 24.6004 11.717 24.6004 9.576ZM14.9414 7.328C15.6374 6.889 16.9414 6.246 19.0554 6.246C21.1694 6.246 23.0614 7.328 23.0614 7.328C23.2034 7.414 23.7594 7.711 23.3784 7.937C22.5404 8.434 20.9004 8.957 19.0004 8.957C17.1004 8.957 15.5164 8.381 14.6764 7.883C14.2954 7.658 14.9414 7.328 14.9414 7.328ZM19.5014 15C19.5014 16.193 20.4974 16.961 21.5524 17.986C22.3234 18.734 23.3784 19.759 23.3784 20.421V21.749C22.4084 21.266 19.5064 20.794 19.5064 19.245C19.5064 18.462 18.4934 18.462 18.4934 19.245C18.4934 20.794 15.5914 21.266 14.6214 21.749V20.421C14.6214 19.759 15.6774 18.733 16.4474 17.986C17.5024 16.961 18.4984 16.193 18.4984 15C18.4984 13.807 17.5024 13.039 16.4474 12.014C15.6764 11.264 14.6214 10.239 14.6214 9.576L14.5754 8.578C15.6014 9.131 17.2274 9.656 19.0004 9.656C20.7734 9.656 22.4064 9.131 23.4334 8.578L23.3784 9.576C23.3784 10.238 22.3224 11.264 21.5524 12.014C20.4984 13.039 19.5014 13.807 19.5014 15Z" fill="white"/>
</g>
<defs>
<filter id="filter0_d_8006_2795" x="0" y="0" width="38" height="38" filterUnits="userSpaceOnUse" color-interpolation-filters="sRGB">
<feFlood flood-opacity="0" result="BackgroundImageFix"/>
<feColorMatrix in="SourceAlpha" type="matrix" values="0 0 0 0 0 0 0 0 0 0 0 0 0 0 0 0 0 0 127 0" result="hardAlpha"/>
<feOffset dy="4"/>
<feGaussianBlur stdDeviation="2"/>
<feComposite in2="hardAlpha" operator="out"/>
<feColorMatrix type="matrix" values="0 0 0 0 0 0 0 0 0 0 0 0 0 0 0 0 0 0 0.12 0"/>
<feBlend mode="normal" in2="BackgroundImageFix" result="effect1_dropShadow_8006_2795"/>
<feBlend mode="normal" in="SourceGraphic" in2="effect1_dropShadow_8006_2795" result="shape"/>
</filter>
</defs>
</svg>
