<svg width="25" height="26" viewBox="0 0 25 26" fill="none" xmlns="http://www.w3.org/2000/svg">
<path d="M6.39375 22.3753C5.16667 22.3753 4.17188 21.3545 4.17188 20.094V10.9253C4.17188 10.2326 4.47917 9.57633 5.00521 9.14404L11.1167 4.12529C11.5071 3.80194 11.9982 3.625 12.5052 3.625C13.0122 3.625 13.5033 3.80194 13.8937 4.12529L20.0042 9.14404C20.5312 9.57633 20.8385 10.2326 20.8385 10.9253V20.094C20.8385 21.3545 19.8437 22.3753 18.6167 22.3753H6.39375Z" stroke="#4CAF50" stroke-width="1.25" stroke-linecap="round" stroke-linejoin="round"/>
<path d="M9.90625 22.375V16.6458C9.90625 16.0933 10.1257 15.5634 10.5164 15.1727C10.9071 14.782 11.437 14.5625 11.9896 14.5625H13.0312C13.5838 14.5625 14.1137 14.782 14.5044 15.1727C14.8951 15.5634 15.1146 16.0933 15.1146 16.6458V22.375" stroke="#4CAF50" stroke-width="1.25" stroke-linecap="round" stroke-linejoin="round"/>
</svg>
