<svg width="38" height="38" viewBox="0 0 38 38" fill="none" xmlns="http://www.w3.org/2000/svg">
<g filter="url(#filter0_d_8006_2779)">
<rect x="4" width="30" height="30" rx="3" fill="#4CAF50"/>
<rect x="4.5" y="0.5" width="29" height="29" rx="2.5" stroke="#AAAAAA" stroke-opacity="0.3"/>
<path d="M12.333 12.5H13.9997V7.5H15.6663L18.5163 12.5H22.333V7.5H23.9997V12.5H25.6663V14.1667H23.9997V15.8333H25.6663V17.5H23.9997V22.5H22.333L19.4747 17.5H15.6663V22.5H13.9997V17.5H12.333V15.8333H13.9997V14.1667H12.333V12.5ZM15.6663 12.5H16.608L15.6663 10.8583V12.5ZM15.6663 14.1667V15.8333H18.5163L17.5663 14.1667H15.6663ZM22.333 19.1667V17.5H21.3747L22.333 19.1667ZM19.4663 14.1667L20.4247 15.8333H22.333V14.1667H19.4663Z" fill="white"/>
</g>
<defs>
<filter id="filter0_d_8006_2779" x="0" y="0" width="38" height="38" filterUnits="userSpaceOnUse" color-interpolation-filters="sRGB">
<feFlood flood-opacity="0" result="BackgroundImageFix"/>
<feColorMatrix in="SourceAlpha" type="matrix" values="0 0 0 0 0 0 0 0 0 0 0 0 0 0 0 0 0 0 127 0" result="hardAlpha"/>
<feOffset dy="4"/>
<feGaussianBlur stdDeviation="2"/>
<feComposite in2="hardAlpha" operator="out"/>
<feColorMatrix type="matrix" values="0 0 0 0 0 0 0 0 0 0 0 0 0 0 0 0 0 0 0.12 0"/>
<feBlend mode="normal" in2="BackgroundImageFix" result="effect1_dropShadow_8006_2779"/>
<feBlend mode="normal" in="SourceGraphic" in2="effect1_dropShadow_8006_2779" result="shape"/>
</filter>
</defs>
</svg>
