<svg width="25" height="25" viewBox="0 0 25 25" fill="none" xmlns="http://www.w3.org/2000/svg">
<path d="M8.75 9.375C8.75 9.20924 8.81585 9.05027 8.93306 8.93306C9.05027 8.81585 9.20924 8.75 9.375 8.75H15.625C15.7908 8.75 15.9497 8.81585 16.0669 8.93306C16.1842 9.05027 16.25 9.20924 16.25 9.375C16.25 9.54076 16.1842 9.69973 16.0669 9.81694C15.9497 9.93415 15.7908 10 15.625 10H9.375C9.20924 10 9.05027 9.93415 8.93306 9.81694C8.81585 9.69973 8.75 9.54076 8.75 9.375ZM9.375 12.5C9.20924 12.5 9.05027 12.5658 8.93306 12.6831C8.81585 12.8003 8.75 12.9592 8.75 13.125C8.75 13.2908 8.81585 13.4497 8.93306 13.5669C9.05027 13.6842 9.20924 13.75 9.375 13.75H15.625C15.7908 13.75 15.9497 13.6842 16.0669 13.5669C16.1842 13.4497 16.25 13.2908 16.25 13.125C16.25 12.9592 16.1842 12.8003 16.0669 12.6831C15.9497 12.5658 15.7908 12.5 15.625 12.5H9.375ZM8.75 16.875C8.75 16.7092 8.81585 16.5503 8.93306 16.4331C9.05027 16.3158 9.20924 16.25 9.375 16.25H11.875C12.0408 16.25 12.1997 16.3158 12.3169 16.4331C12.4342 16.5503 12.5 16.7092 12.5 16.875C12.5 17.0408 12.4342 17.1997 12.3169 17.3169C12.1997 17.4342 12.0408 17.5 11.875 17.5H9.375C9.20924 17.5 9.05027 17.4342 8.93306 17.3169C8.81585 17.1997 8.75 17.0408 8.75 16.875ZM7.5 3.125C7.5 2.95924 7.56585 2.80027 7.68306 2.68306C7.80027 2.56585 7.95924 2.5 8.125 2.5C8.29076 2.5 8.44973 2.56585 8.56694 2.68306C8.68415 2.80027 8.75 2.95924 8.75 3.125V3.75H11.875V3.125C11.875 2.95924 11.9408 2.80027 12.0581 2.68306C12.1753 2.56585 12.3342 2.5 12.5 2.5C12.6658 2.5 12.8247 2.56585 12.9419 2.68306C13.0592 2.80027 13.125 2.95924 13.125 3.125V3.75H16.25V3.125C16.25 2.95924 16.3158 2.80027 16.4331 2.68306C16.5503 2.56585 16.7092 2.5 16.875 2.5C17.0408 2.5 17.1997 2.56585 17.3169 2.68306C17.4342 2.80027 17.5 2.95924 17.5 3.125V3.75H18.125C18.6223 3.75 19.0992 3.94754 19.4508 4.29918C19.8025 4.65081 20 5.12772 20 5.625V11.54C19.5925 11.715 19.21 11.9675 18.8775 12.3013L18.75 12.4288V5.625C18.75 5.45924 18.6842 5.30027 18.5669 5.18306C18.4497 5.06585 18.2908 5 18.125 5H6.875C6.70924 5 6.55027 5.06585 6.43306 5.18306C6.31585 5.30027 6.25 5.45924 6.25 5.625V20.625C6.25 20.7908 6.31585 20.9497 6.43306 21.0669C6.55027 21.1842 6.70924 21.25 6.875 21.25H11.525L11.3212 22.0663C11.2846 22.2129 11.2621 22.3575 11.2537 22.5H6.875C6.37772 22.5 5.90081 22.3025 5.54917 21.9508C5.19754 21.5992 5 21.1223 5 20.625V5.625C5 5.12772 5.19754 4.65081 5.54917 4.29918C5.90081 3.94754 6.37772 3.75 6.875 3.75H7.5V3.125ZM19.7625 13.185L13.725 19.2225C13.3733 19.5743 13.1236 20.015 13.0025 20.4975L12.5337 22.37C12.4875 22.5562 12.4902 22.7513 12.5417 22.9361C12.5931 23.121 12.6914 23.2894 12.8272 23.425C12.9629 23.5607 13.1315 23.6589 13.3164 23.7101C13.5013 23.7614 13.6963 23.7639 13.8825 23.7175L15.755 23.25C16.2375 23.1289 16.6782 22.8792 17.03 22.5275L23.0675 16.49C23.5002 16.0504 23.7416 15.4576 23.7391 14.8408C23.7365 14.224 23.4904 13.6332 23.0541 13.1971C22.6179 12.7611 22.027 12.5151 21.4102 12.5128C20.7934 12.5105 20.2007 12.7522 19.7612 13.185" fill="#71717A"/>
</svg>
