<svg width="25" height="26" viewBox="0 0 25 26" fill="none" xmlns="http://www.w3.org/2000/svg">
<path d="M7.54688 6.75C7.33967 6.75 7.14096 6.83231 6.99445 6.97882C6.84793 7.12534 6.76563 7.32405 6.76562 7.53125V15.3438C6.76563 15.551 6.84793 15.7497 6.99445 15.8962C7.14096 16.0427 7.33967 16.125 7.54688 16.125C7.75408 16.125 7.95279 16.0427 8.0993 15.8962C8.24582 15.7497 8.32812 15.551 8.32812 15.3438V7.53125C8.32812 7.32405 8.24582 7.12534 8.0993 6.97882C7.95279 6.83231 7.75408 6.75 7.54688 6.75ZM12.4948 6.75C12.2876 6.75 12.0889 6.83231 11.9424 6.97882C11.7959 7.12534 11.7135 7.32405 11.7135 7.53125V12.2188C11.7135 12.426 11.7959 12.6247 11.9424 12.7712C12.0889 12.9177 12.2876 13 12.4948 13C12.702 13 12.9007 12.9177 13.0472 12.7712C13.1937 12.6247 13.276 12.426 13.276 12.2188V7.53125C13.276 7.32405 13.1937 7.12534 13.0472 6.97882C12.9007 6.83231 12.702 6.75 12.4948 6.75ZM16.6615 7.53125C16.6615 7.32405 16.7438 7.12534 16.8903 6.97882C17.0368 6.83231 17.2355 6.75 17.4427 6.75C17.6499 6.75 17.8486 6.83231 17.9951 6.97882C18.1416 7.12534 18.224 7.32405 18.224 7.53125V17.4271C18.224 17.6343 18.1416 17.833 17.9951 17.9795C17.8486 18.126 17.6499 18.2083 17.4427 18.2083C17.2355 18.2083 17.0368 18.126 16.8903 17.9795C16.7438 17.833 16.6615 17.6343 16.6615 17.4271V7.53125Z" fill="#A1A1A1"/>
<path d="M3.90104 2.58203H21.0885C22.0948 2.58203 22.9115 3.3987 22.9115 4.40495V21.5924C22.9115 22.0759 22.7194 22.5396 22.3775 22.8814C22.0357 23.2233 21.572 23.4154 21.0885 23.4154H3.90104C3.41757 23.4154 2.95391 23.2233 2.61204 22.8814C2.27018 22.5396 2.07812 22.0759 2.07812 21.5924V4.40495C2.07812 3.3987 2.89479 2.58203 3.90104 2.58203ZM3.64062 4.40495V21.5924C3.64062 21.7362 3.75729 21.8529 3.90104 21.8529H21.0885C21.1576 21.8529 21.2238 21.8254 21.2727 21.7766C21.3215 21.7278 21.349 21.6615 21.349 21.5924V4.40495C21.349 4.33588 21.3215 4.26964 21.2727 4.22081C21.2238 4.17197 21.1576 4.14453 21.0885 4.14453H3.90104C3.83197 4.14453 3.76574 4.17197 3.7169 4.22081C3.66806 4.26964 3.64062 4.33588 3.64062 4.40495Z" fill="#A1A1A1"/>
</svg>
