<svg width="20" height="21" viewBox="0 0 20 21" fill="none" xmlns="http://www.w3.org/2000/svg">
<path d="M5.9776 2.70898H10.6943C11.1401 2.70898 11.5109 2.70898 11.8151 2.73398C12.1318 2.75898 12.4284 2.81565 12.7093 2.95898C13.1406 3.17871 13.4912 3.52936 13.7109 3.96065C13.8543 4.24148 13.9109 4.53815 13.9359 4.85482C13.9609 5.15898 13.9609 5.52982 13.9609 5.97565V8.54232C13.9609 8.70808 13.8951 8.86705 13.7779 8.98426C13.6607 9.10147 13.5017 9.16732 13.3359 9.16732C13.1702 9.16732 13.0112 9.10147 12.894 8.98426C12.7768 8.86705 12.7109 8.70808 12.7109 8.54232V6.00065C12.7109 5.52398 12.7109 5.20315 12.6901 4.95648C12.6709 4.71732 12.6359 4.60315 12.5976 4.52815C12.4979 4.33196 12.3386 4.17238 12.1426 4.07232C12.0668 4.03398 11.9526 3.99898 11.7134 3.97982C11.4668 3.95982 11.1468 3.95898 10.6693 3.95898H6.0026C5.52594 3.95898 5.2051 3.95898 4.95844 3.97982C4.71927 3.99898 4.6051 4.03398 4.5301 4.07232C4.33378 4.17224 4.17419 4.33183 4.07427 4.52815C4.03594 4.60315 4.00094 4.71732 3.98177 4.95648C3.96177 5.20315 3.96094 5.52315 3.96094 6.00065V14.0007C3.96094 14.4773 3.96094 14.7982 3.98177 15.044C4.00094 15.284 4.03594 15.3982 4.07427 15.4732C4.16927 15.659 4.31594 15.8115 4.4976 15.9115C4.51094 15.9148 4.54038 15.9201 4.58594 15.9273C4.68316 15.9418 4.81538 15.9551 4.9826 15.9673C5.31427 15.9923 5.74094 16.009 6.19427 16.0198C7.09844 16.0423 8.0776 16.0423 8.54427 16.0423C8.71003 16.0423 8.869 16.1082 8.98621 16.2254C9.10342 16.3426 9.16927 16.5016 9.16927 16.6673C9.16927 16.8331 9.10342 16.992 8.98621 17.1093C8.869 17.2265 8.71003 17.2923 8.54427 17.2923H8.5426C8.07594 17.2923 7.08427 17.2923 6.16344 17.2698C5.7389 17.261 5.31462 17.2424 4.89094 17.214C4.72788 17.2033 4.56527 17.1866 4.40344 17.164C4.25085 17.1463 4.10189 17.1052 3.96177 17.0423C3.53104 16.8229 3.18073 16.4729 2.96094 16.0423C2.8176 15.7607 2.76094 15.464 2.73594 15.1473C2.71094 14.8432 2.71094 14.4723 2.71094 14.0265V5.97565C2.71094 5.52982 2.71094 5.15898 2.73594 4.85482C2.76094 4.53815 2.8176 4.24148 2.96094 3.96065C3.18066 3.52936 3.53131 3.17871 3.9626 2.95898C4.24344 2.81565 4.5401 2.75898 4.85677 2.73398C5.16094 2.70898 5.53177 2.70898 5.9776 2.70898Z" fill="#4CAF50"/>
<path d="M11.9732 10.209H15.5216C15.8507 10.209 16.1349 10.209 16.3691 10.2282C16.6166 10.2482 16.8624 10.2932 17.0982 10.4132C17.4516 10.5932 17.7382 10.8798 17.9182 11.2332C18.0382 11.469 18.0832 11.7148 18.1032 11.9623C18.1224 12.1957 18.1224 12.4807 18.1224 12.8098V14.6915C18.1224 15.0207 18.1224 15.3048 18.1032 15.539C18.0903 15.7919 18.0275 16.0397 17.9182 16.2682C17.7386 16.6211 17.4519 16.9082 17.0991 17.0882C16.8624 17.2081 16.6157 17.2531 16.3691 17.2732C16.1357 17.2923 15.8507 17.2923 15.5216 17.2923H11.9724C11.6432 17.2923 11.3591 17.2923 11.1249 17.2732C10.872 17.2603 10.6242 17.1974 10.3957 17.0882C10.0427 16.9086 9.75569 16.6218 9.57573 16.269C9.46639 16.0403 9.40351 15.7922 9.39073 15.539C9.37156 15.3057 9.37156 15.0207 9.37156 14.6915V12.809C9.37156 12.4798 9.37156 12.1957 9.39073 11.9615C9.40362 11.7086 9.4665 11.4608 9.57573 11.2323C9.75555 10.8792 10.0426 10.5921 10.3957 10.4123C10.6242 10.3031 10.872 10.2402 11.1249 10.2273C11.3582 10.2082 11.6432 10.2082 11.9724 10.2082M11.2266 11.4732C11.0566 11.4873 10.9932 11.5107 10.9624 11.5265C10.8451 11.5863 10.7498 11.6817 10.6899 11.799C10.6732 11.8307 10.6507 11.8932 10.6366 12.0632L10.6349 12.0832H16.8582L16.8566 12.0632C16.8424 11.8932 16.8191 11.8298 16.8032 11.799C16.7431 11.6816 16.6475 11.5862 16.5299 11.5265C16.4991 11.5098 16.4366 11.4873 16.2666 11.4732C16.0102 11.459 15.7533 11.454 15.4966 11.4582H11.9966C11.6366 11.4582 11.4032 11.4582 11.2266 11.4732ZM16.8724 13.7507H10.6224V14.6673C10.6224 15.0273 10.6224 15.2607 10.6374 15.4373C10.6516 15.6073 10.6749 15.6707 10.6907 15.7007C10.7505 15.8182 10.8458 15.9139 10.9632 15.974C10.9949 15.9907 11.0574 16.0132 11.2274 16.0273C11.4041 16.0415 11.6374 16.0423 11.9974 16.0423H15.4974C15.8574 16.0423 16.0907 16.0423 16.2674 16.0273C16.4374 16.0132 16.5007 15.9898 16.5307 15.974C16.6484 15.914 16.7441 15.8184 16.8041 15.7007C16.8207 15.6698 16.8432 15.6073 16.8574 15.4373C16.8716 15.2607 16.8724 15.0273 16.8724 14.6673V13.7507ZM5.41406 5.20898C5.2483 5.20898 5.08933 5.27483 4.97212 5.39204C4.85491 5.50925 4.78906 5.66822 4.78906 5.83398C4.78906 5.99974 4.85491 6.15872 4.97212 6.27593C5.08933 6.39314 5.2483 6.45898 5.41406 6.45898H8.7474C8.91316 6.45898 9.07213 6.39314 9.18934 6.27593C9.30655 6.15872 9.3724 5.99974 9.3724 5.83398C9.3724 5.66822 9.30655 5.50925 9.18934 5.39204C9.07213 5.27483 8.91316 5.20898 8.7474 5.20898H5.41406ZM4.78906 8.33398C4.78906 8.16822 4.85491 8.00925 4.97212 7.89204C5.08933 7.77483 5.2483 7.70898 5.41406 7.70898H11.2474C11.4132 7.70898 11.5721 7.77483 11.6893 7.89204C11.8065 8.00925 11.8724 8.16822 11.8724 8.33398C11.8724 8.49974 11.8065 8.65872 11.6893 8.77593C11.5721 8.89314 11.4132 8.95898 11.2474 8.95898H5.41406C5.2483 8.95898 5.08933 8.89314 4.97212 8.77593C4.85491 8.65872 4.78906 8.49974 4.78906 8.33398ZM5.41406 10.209C5.2483 10.209 5.08933 10.2748 4.97212 10.392C4.85491 10.5093 4.78906 10.6682 4.78906 10.834C4.78906 10.9997 4.85491 11.1587 4.97212 11.2759C5.08933 11.3931 5.2483 11.459 5.41406 11.459H8.33073C8.49649 11.459 8.65546 11.3931 8.77267 11.2759C8.88988 11.1587 8.95573 10.9997 8.95573 10.834C8.95573 10.6682 8.88988 10.5093 8.77267 10.392C8.65546 10.2748 8.49649 10.209 8.33073 10.209H5.41406ZM4.78906 14.1673C4.78906 14.0016 4.85491 13.8426 4.97212 13.7254C5.08933 13.6082 5.2483 13.5423 5.41406 13.5423H7.08073C7.24649 13.5423 7.40546 13.6082 7.52267 13.7254C7.63988 13.8426 7.70573 14.0016 7.70573 14.1673C7.70573 14.3331 7.63988 14.492 7.52267 14.6093C7.40546 14.7265 7.24649 14.7923 7.08073 14.7923H5.41406C5.2483 14.7923 5.08933 14.7265 4.97212 14.6093C4.85491 14.492 4.78906 14.3331 4.78906 14.1673Z" fill="#4CAF50"/>
</svg>
