<svg width="24" height="24" viewBox="0 0 24 24" fill="none" xmlns="http://www.w3.org/2000/svg">
<g clip-path="url(#clip0_11427_3929)">
<path d="M21.4709 0H1.23767C0.591928 0 0 0.595937 0 1.30023V3.57562C0 4.27991 0.591928 4.87585 1.23767 4.87585H21.4709C22.1704 4.87585 22.7085 4.27991 22.7623 3.57562V1.30023C22.7623 0.595937 22.1704 0 21.4709 0ZM21.4709 12.7856H1.23767C0.914798 12.7856 0.591928 12.9481 0.32287 13.1648C0.107623 13.3815 0 13.7065 0 14.0858V16.3612C0 17.0655 0.591928 17.6614 1.23767 17.6614H21.4709C22.1704 17.6614 22.7085 17.1196 22.7623 16.3612V14.0858C22.7623 13.3273 22.1704 12.7856 21.4709 12.7856ZM12.6457 19.1783H1.23767C0.914798 19.1783 0.591928 19.2867 0.376682 19.5576C0.161435 19.7743 0 20.0993 0 20.4786V22.754C0 23.4582 0.591928 24.0542 1.23767 24.0542H12.5919C13.2915 24.0542 13.8296 23.4582 13.8296 22.754V20.4244C13.8834 19.7201 13.3453 19.1783 12.6457 19.1783ZM22.7623 6.39278H1.23767C0.914798 6.39278 0.591928 6.50113 0.376682 6.77201C0.161435 6.98871 0 7.31377 0 7.693V9.9684C0 10.6727 0.591928 11.2686 1.23767 11.2686H22.7085C23.4081 11.2686 23.9462 10.6727 23.9462 9.9684V7.693C24 6.98871 23.4619 6.39278 22.7623 6.39278Z" fill="#00C3F7"/>
</g>
<defs>
<clipPath id="clip0_11427_3929">
<rect width="24" height="24" fill="white"/>
</clipPath>
</defs>
</svg>
