<svg width="21" height="21" viewBox="0 0 21 21" fill="none" xmlns="http://www.w3.org/2000/svg">
<path fill-rule="evenodd" clip-rule="evenodd" d="M5.5 9.5C6.03043 9.5 6.53914 9.28929 6.91421 8.91421C7.28929 8.53914 7.5 8.03043 7.5 7.5C7.5 6.96957 7.28929 6.46086 6.91421 6.08579C6.53914 5.71071 6.03043 5.5 5.5 5.5C4.96957 5.5 4.46086 5.71071 4.08579 6.08579C3.71071 6.46086 3.5 6.96957 3.5 7.5C3.5 8.03043 3.71071 8.53914 4.08579 8.91421C4.46086 9.28929 4.96957 9.5 5.5 9.5ZM5.5 10.5C5.89397 10.5 6.28407 10.4224 6.64805 10.2716C7.01203 10.1209 7.34274 9.8999 7.62132 9.62132C7.8999 9.34274 8.12087 9.01203 8.27164 8.64805C8.4224 8.28407 8.5 7.89397 8.5 7.5C8.5 7.10603 8.4224 6.71593 8.27164 6.35195C8.12087 5.98797 7.8999 5.65726 7.62132 5.37868C7.34274 5.1001 7.01203 4.87913 6.64805 4.72836C6.28407 4.5776 5.89397 4.5 5.5 4.5C4.70435 4.5 3.94129 4.81607 3.37868 5.37868C2.81607 5.94129 2.5 6.70435 2.5 7.5C2.5 8.29565 2.81607 9.05871 3.37868 9.62132C3.94129 10.1839 4.70435 10.5 5.5 10.5Z" fill="#4CAF50"/>
<path fill-rule="evenodd" clip-rule="evenodd" d="M4.354 9.39611C4.40056 9.44256 4.43751 9.49773 4.46271 9.55848C4.48792 9.61922 4.50089 9.68435 4.50089 9.75011C4.50089 9.81588 4.48792 9.881 4.46271 9.94175C4.43751 10.0025 4.40056 10.0577 4.354 10.1041L4.016 10.4411C3.36554 11.0918 3.00009 11.9741 3 12.8941V14.7501C3 14.8827 2.94732 15.0099 2.85355 15.1037C2.75979 15.1974 2.63261 15.2501 2.5 15.2501C2.36739 15.2501 2.24021 15.1974 2.14645 15.1037C2.05268 15.0099 2 14.8827 2 14.7501V12.8941C2.00014 11.7089 2.47099 10.5723 3.309 9.73411L3.646 9.39611C3.69245 9.34955 3.74762 9.31261 3.80837 9.2874C3.86911 9.26219 3.93423 9.24922 4 9.24922C4.06577 9.24922 4.13089 9.26219 4.19163 9.2874C4.25238 9.31261 4.30755 9.34955 4.354 9.39611ZM16.146 9.09611C16.0994 9.14256 16.0625 9.19773 16.0373 9.25848C16.0121 9.31922 15.9991 9.38435 15.9991 9.45011C15.9991 9.51588 16.0121 9.581 16.0373 9.64175C16.0625 9.70249 16.0994 9.75767 16.146 9.80411L16.484 10.1411C17.1345 10.7918 17.4999 11.6741 17.5 12.5941V14.7501C17.5 14.8827 17.5527 15.0099 17.6464 15.1037C17.7402 15.1974 17.8674 15.2501 18 15.2501C18.1326 15.2501 18.2598 15.1974 18.3536 15.1037C18.4473 15.0099 18.5 14.8827 18.5 14.7501V12.5941C18.4999 11.4089 18.029 10.2723 17.191 9.43411L16.854 9.09611C16.8076 9.04955 16.7524 9.01261 16.6916 8.9874C16.6309 8.96219 16.5658 8.94922 16.5 8.94922C16.4342 8.94922 16.3691 8.96219 16.3084 8.9874C16.2476 9.01261 16.1924 9.04955 16.146 9.09611Z" fill="#4CAF50"/>
<path fill-rule="evenodd" clip-rule="evenodd" d="M14.5 9.5C13.9696 9.5 13.4609 9.28929 13.0858 8.91421C12.7107 8.53914 12.5 8.03043 12.5 7.5C12.5 6.96957 12.7107 6.46086 13.0858 6.08579C13.4609 5.71071 13.9696 5.5 14.5 5.5C15.0304 5.5 15.5391 5.71071 15.9142 6.08579C16.2893 6.46086 16.5 6.96957 16.5 7.5C16.5 8.03043 16.2893 8.53914 15.9142 8.91421C15.5391 9.28929 15.0304 9.5 14.5 9.5ZM14.5 10.5C14.106 10.5 13.7159 10.4224 13.3519 10.2716C12.988 10.1209 12.6573 9.8999 12.3787 9.62132C12.1001 9.34274 11.8791 9.01203 11.7284 8.64805C11.5776 8.28407 11.5 7.89397 11.5 7.5C11.5 7.10603 11.5776 6.71593 11.7284 6.35195C11.8791 5.98797 12.1001 5.65726 12.3787 5.37868C12.6573 5.1001 12.988 4.87913 13.3519 4.72836C13.7159 4.5776 14.106 4.5 14.5 4.5C15.2956 4.5 16.0587 4.81607 16.6213 5.37868C17.1839 5.94129 17.5 6.70435 17.5 7.5C17.5 8.29565 17.1839 9.05871 16.6213 9.62132C16.0587 10.1839 15.2956 10.5 14.5 10.5ZM10 13.75C9.33696 13.75 8.70107 14.0134 8.23223 14.4822C7.76339 14.9511 7.5 15.587 7.5 16.25V17.55C7.5 17.6826 7.44732 17.8098 7.35355 17.9036C7.25979 17.9973 7.13261 18.05 7 18.05C6.86739 18.05 6.74021 17.9973 6.64645 17.9036C6.55268 17.8098 6.5 17.6826 6.5 17.55V16.25C6.5 15.3217 6.86875 14.4315 7.52513 13.7751C8.1815 13.1187 9.07174 12.75 10 12.75C10.9283 12.75 11.8185 13.1187 12.4749 13.7751C13.1313 14.4315 13.5 15.3217 13.5 16.25V17.55C13.5 17.6826 13.4473 17.8098 13.3536 17.9036C13.2598 17.9973 13.1326 18.05 13 18.05C12.8674 18.05 12.7402 17.9973 12.6464 17.9036C12.5527 17.8098 12.5 17.6826 12.5 17.55V16.25C12.5 15.9217 12.4353 15.5966 12.3097 15.2933C12.1841 14.99 11.9999 14.7144 11.7678 14.4822C11.5356 14.2501 11.26 14.0659 10.9567 13.9403C10.6534 13.8147 10.3283 13.75 10 13.75Z" fill="#4CAF50"/>
<path fill-rule="evenodd" clip-rule="evenodd" d="M10 12.25C10.5304 12.25 11.0391 12.0393 11.4142 11.6642C11.7893 11.2891 12 10.7804 12 10.25C12 9.71957 11.7893 9.21086 11.4142 8.83579C11.0391 8.46071 10.5304 8.25 10 8.25C9.46957 8.25 8.96086 8.46071 8.58579 8.83579C8.21071 9.21086 8 9.71957 8 10.25C8 10.7804 8.21071 11.2891 8.58579 11.6642C8.96086 12.0393 9.46957 12.25 10 12.25ZM10 13.25C10.7956 13.25 11.5587 12.9339 12.1213 12.3713C12.6839 11.8087 13 11.0456 13 10.25C13 9.45435 12.6839 8.69129 12.1213 8.12868C11.5587 7.56607 10.7956 7.25 10 7.25C9.20435 7.25 8.44129 7.56607 7.87868 8.12868C7.31607 8.69129 7 9.45435 7 10.25C7 11.0456 7.31607 11.8087 7.87868 12.3713C8.44129 12.9339 9.20435 13.25 10 13.25Z" fill="#4CAF50"/>
</svg>
