<svg width="25" height="26" viewBox="0 0 25 26" fill="none" xmlns="http://www.w3.org/2000/svg">
<path fill-rule="evenodd" clip-rule="evenodd" d="M6.25 11.75C6.91304 11.75 7.54893 11.4866 8.01777 11.0178C8.48661 10.5489 8.75 9.91304 8.75 9.25C8.75 8.58696 8.48661 7.95107 8.01777 7.48223C7.54893 7.01339 6.91304 6.75 6.25 6.75C5.58696 6.75 4.95107 7.01339 4.48223 7.48223C4.01339 7.95107 3.75 8.58696 3.75 9.25C3.75 9.91304 4.01339 10.5489 4.48223 11.0178C4.95107 11.4866 5.58696 11.75 6.25 11.75ZM6.25 13C6.74246 13 7.23009 12.903 7.68506 12.7145C8.14003 12.5261 8.55343 12.2499 8.90165 11.9017C9.24987 11.5534 9.52609 11.14 9.71455 10.6851C9.903 10.2301 10 9.74246 10 9.25C10 8.75754 9.903 8.26991 9.71455 7.81494C9.52609 7.35997 9.24987 6.94657 8.90165 6.59835C8.55343 6.25013 8.14003 5.97391 7.68506 5.78545C7.23009 5.597 6.74246 5.5 6.25 5.5C5.25544 5.5 4.30161 5.89509 3.59835 6.59835C2.89509 7.30161 2.5 8.25544 2.5 9.25C2.5 10.2446 2.89509 11.1984 3.59835 11.9017C4.30161 12.6049 5.25544 13 6.25 13Z" fill="#A1A1A1"/>
<path fill-rule="evenodd" clip-rule="evenodd" d="M4.8175 11.6192C4.8757 11.6772 4.92188 11.7462 4.95339 11.8221C4.9849 11.8981 5.00112 11.9795 5.00112 12.0617C5.00112 12.1439 4.9849 12.2253 4.95339 12.3012C4.92188 12.3771 4.8757 12.4461 4.8175 12.5042L4.395 12.9254C3.58192 13.7387 3.12511 14.8416 3.125 15.9917V18.3117C3.125 18.4774 3.05915 18.6364 2.94194 18.7536C2.82473 18.8708 2.66576 18.9367 2.5 18.9367C2.33424 18.9367 2.17527 18.8708 2.05806 18.7536C1.94085 18.6364 1.875 18.4774 1.875 18.3117V15.9917C1.87518 14.5101 2.46373 13.0893 3.51125 12.0417L3.9325 11.6192C3.99056 11.561 4.05953 11.5148 4.13546 11.4833C4.21139 11.4518 4.29279 11.4355 4.375 11.4355C4.45721 11.4355 4.53861 11.4518 4.61454 11.4833C4.69047 11.5148 4.75944 11.561 4.8175 11.6192ZM19.5575 11.2442C19.4993 11.3022 19.4531 11.3712 19.4216 11.4471C19.3901 11.5231 19.3739 11.6045 19.3739 11.6867C19.3739 11.7689 19.3901 11.8503 19.4216 11.9262C19.4531 12.0021 19.4993 12.0711 19.5575 12.1292L19.98 12.5504C20.7931 13.3637 21.2499 14.4666 21.25 15.6167V18.3117C21.25 18.4774 21.3158 18.6364 21.4331 18.7536C21.5503 18.8708 21.7092 18.9367 21.875 18.9367C22.0408 18.9367 22.1997 18.8708 22.3169 18.7536C22.4342 18.6364 22.5 18.4774 22.5 18.3117V15.6167C22.4998 14.1351 21.9113 12.7143 20.8638 11.6667L20.4425 11.2442C20.3844 11.186 20.3155 11.1398 20.2395 11.1083C20.1636 11.0768 20.0822 11.0605 20 11.0605C19.9178 11.0605 19.8364 11.0768 19.7605 11.1083C19.6845 11.1398 19.6156 11.186 19.5575 11.2442Z" fill="#A1A1A1"/>
<path fill-rule="evenodd" clip-rule="evenodd" d="M17.5 11.75C16.837 11.75 16.2011 11.4866 15.7322 11.0178C15.2634 10.5489 15 9.91304 15 9.25C15 8.58696 15.2634 7.95107 15.7322 7.48223C16.2011 7.01339 16.837 6.75 17.5 6.75C18.163 6.75 18.7989 7.01339 19.2678 7.48223C19.7366 7.95107 20 8.58696 20 9.25C20 9.91304 19.7366 10.5489 19.2678 11.0178C18.7989 11.4866 18.163 11.75 17.5 11.75ZM17.5 13C17.0075 13 16.5199 12.903 16.0649 12.7145C15.61 12.5261 15.1966 12.2499 14.8483 11.9017C14.5001 11.5534 14.2239 11.14 14.0355 10.6851C13.847 10.2301 13.75 9.74246 13.75 9.25C13.75 8.75754 13.847 8.26991 14.0355 7.81494C14.2239 7.35997 14.5001 6.94657 14.8483 6.59835C15.1966 6.25013 15.61 5.97391 16.0649 5.78545C16.5199 5.597 17.0075 5.5 17.5 5.5C18.4946 5.5 19.4484 5.89509 20.1517 6.59835C20.8549 7.30161 21.25 8.25544 21.25 9.25C21.25 10.2446 20.8549 11.1984 20.1517 11.9017C19.4484 12.6049 18.4946 13 17.5 13ZM11.875 17.0625C11.0462 17.0625 10.2513 17.3917 9.66529 17.9778C9.07924 18.5638 8.75 19.3587 8.75 20.1875V21.8125C8.75 21.9783 8.68415 22.1372 8.56694 22.2544C8.44973 22.3717 8.29076 22.4375 8.125 22.4375C7.95924 22.4375 7.80027 22.3717 7.68306 22.2544C7.56585 22.1372 7.5 21.9783 7.5 21.8125V20.1875C7.5 19.0272 7.96094 17.9144 8.78141 17.0939C9.60188 16.2734 10.7147 15.8125 11.875 15.8125C13.0353 15.8125 14.1481 16.2734 14.9686 17.0939C15.7891 17.9144 16.25 19.0272 16.25 20.1875V21.8125C16.25 21.9783 16.1842 22.1372 16.0669 22.2544C15.9497 22.3717 15.7908 22.4375 15.625 22.4375C15.4592 22.4375 15.3003 22.3717 15.1831 22.2544C15.0658 22.1372 15 21.9783 15 21.8125V20.1875C15 19.7771 14.9192 19.3708 14.7621 18.9916C14.6051 18.6125 14.3749 18.268 14.0847 17.9778C13.7945 17.6876 13.45 17.4574 13.0709 17.3004C12.6917 17.1433 12.2854 17.0625 11.875 17.0625Z" fill="#A1A1A1"/>
<path fill-rule="evenodd" clip-rule="evenodd" d="M11.875 15.1875C12.538 15.1875 13.1739 14.9241 13.6428 14.4553C14.1116 13.9864 14.375 13.3505 14.375 12.6875C14.375 12.0245 14.1116 11.3886 13.6428 10.9197C13.1739 10.4509 12.538 10.1875 11.875 10.1875C11.212 10.1875 10.5761 10.4509 10.1072 10.9197C9.63839 11.3886 9.375 12.0245 9.375 12.6875C9.375 13.3505 9.63839 13.9864 10.1072 14.4553C10.5761 14.9241 11.212 15.1875 11.875 15.1875ZM11.875 16.4375C12.8696 16.4375 13.8234 16.0424 14.5267 15.3392C15.2299 14.6359 15.625 13.6821 15.625 12.6875C15.625 11.6929 15.2299 10.7391 14.5267 10.0358C13.8234 9.33259 12.8696 8.9375 11.875 8.9375C10.8804 8.9375 9.92661 9.33259 9.22335 10.0358C8.52009 10.7391 8.125 11.6929 8.125 12.6875C8.125 13.6821 8.52009 14.6359 9.22335 15.3392C9.92661 16.0424 10.8804 16.4375 11.875 16.4375Z" fill="#A1A1A1"/>
</svg>
