<svg width="20" height="20" viewBox="0 0 20 20" fill="none" xmlns="http://www.w3.org/2000/svg">
<path d="M6.04297 5C5.87721 5 5.71824 5.06585 5.60103 5.18306C5.48382 5.30027 5.41797 5.45924 5.41797 5.625V11.875C5.41797 12.0408 5.48382 12.1997 5.60103 12.3169C5.71824 12.4342 5.87721 12.5 6.04297 12.5C6.20873 12.5 6.3677 12.4342 6.48491 12.3169C6.60212 12.1997 6.66797 12.0408 6.66797 11.875V5.625C6.66797 5.45924 6.60212 5.30027 6.48491 5.18306C6.3677 5.06585 6.20873 5 6.04297 5ZM10.0013 5C9.83554 5 9.67657 5.06585 9.55936 5.18306C9.44215 5.30027 9.3763 5.45924 9.3763 5.625V9.375C9.3763 9.54076 9.44215 9.69973 9.55936 9.81694C9.67657 9.93415 9.83554 10 10.0013 10C10.1671 10 10.326 9.93415 10.4432 9.81694C10.5605 9.69973 10.6263 9.54076 10.6263 9.375V5.625C10.6263 5.45924 10.5605 5.30027 10.4432 5.18306C10.326 5.06585 10.1671 5 10.0013 5ZM13.3346 5.625C13.3346 5.45924 13.4005 5.30027 13.5177 5.18306C13.6349 5.06585 13.7939 5 13.9596 5C14.1254 5 14.2844 5.06585 14.4016 5.18306C14.5188 5.30027 14.5846 5.45924 14.5846 5.625V13.5417C14.5846 13.7074 14.5188 13.8664 14.4016 13.9836C14.2844 14.1008 14.1254 14.1667 13.9596 14.1667C13.7939 14.1667 13.6349 14.1008 13.5177 13.9836C13.4005 13.8664 13.3346 13.7074 13.3346 13.5417V5.625Z" fill="#4CAF50"/>
<path d="M3.1263 1.66602H16.8763C17.6813 1.66602 18.3346 2.31935 18.3346 3.12435V16.8743C18.3346 17.2611 18.181 17.6321 17.9075 17.9055C17.634 18.179 17.2631 18.3327 16.8763 18.3327H3.1263C2.73953 18.3327 2.3686 18.179 2.0951 17.9055C1.82161 17.6321 1.66797 17.2611 1.66797 16.8743V3.12435C1.66797 2.31935 2.3213 1.66602 3.1263 1.66602ZM2.91797 3.12435V16.8743C2.91797 16.9893 3.0113 17.0827 3.1263 17.0827H16.8763C16.9316 17.0827 16.9845 17.0607 17.0236 17.0217C17.0627 16.9826 17.0846 16.9296 17.0846 16.8743V3.12435C17.0846 3.0691 17.0627 3.01611 17.0236 2.97704C16.9845 2.93797 16.9316 2.91602 16.8763 2.91602H3.1263C3.07105 2.91602 3.01806 2.93797 2.97899 2.97704C2.93992 3.01611 2.91797 3.0691 2.91797 3.12435Z" fill="#4CAF50"/>
</svg>
