<svg width="21" height="20" viewBox="0 0 21 20" fill="none" xmlns="http://www.w3.org/2000/svg">
<path d="M6.75 11.25H11.75V12.5H6.75V11.25ZM6.75 8.125H14.25V9.375H6.75V8.125ZM6.75 14.375H9.875V15.625H6.75V14.375Z" fill="#4CAF50"/>
<path d="M16.125 3.125H14.25V2.5C14.25 2.16848 14.1183 1.85054 13.8839 1.61612C13.6495 1.3817 13.3315 1.25 13 1.25H8C7.66848 1.25 7.35054 1.3817 7.11612 1.61612C6.8817 1.85054 6.75 2.16848 6.75 2.5V3.125H4.875C4.54348 3.125 4.22554 3.2567 3.99112 3.49112C3.7567 3.72554 3.625 4.04348 3.625 4.375V17.5C3.625 17.8315 3.7567 18.1495 3.99112 18.3839C4.22554 18.6183 4.54348 18.75 4.875 18.75H16.125C16.4565 18.75 16.7745 18.6183 17.0089 18.3839C17.2433 18.1495 17.375 17.8315 17.375 17.5V4.375C17.375 4.04348 17.2433 3.72554 17.0089 3.49112C16.7745 3.2567 16.4565 3.125 16.125 3.125ZM8 2.5H13V5H8V2.5ZM16.125 17.5H4.875V4.375H6.75V6.25H14.25V4.375H16.125V17.5Z" fill="#4CAF50"/>
</svg>
