<svg width="25" height="26" viewBox="0 0 25 26" fill="none" xmlns="http://www.w3.org/2000/svg">
<path d="M12.5 16.125C14.2259 16.125 15.625 14.7259 15.625 13C15.625 11.2741 14.2259 9.875 12.5 9.875C10.7741 9.875 9.375 11.2741 9.375 13C9.375 14.7259 10.7741 16.125 12.5 16.125Z" stroke="#A1A1A1" stroke-width="1.25"/>
<path d="M14.3353 2.74036C13.9531 2.58203 13.4676 2.58203 12.4968 2.58203C11.526 2.58203 11.0406 2.58203 10.6583 2.74036C10.4053 2.84507 10.1755 2.99859 9.98194 3.19216C9.78837 3.38573 9.63484 3.61555 9.53014 3.86849C9.43431 4.10078 9.39577 4.37266 9.38118 4.76745C9.3744 5.05279 9.29535 5.33175 9.15143 5.57823C9.00752 5.82472 8.80343 6.03067 8.55827 6.17682C8.30911 6.31617 8.02867 6.39002 7.74319 6.39148C7.45772 6.39294 7.17654 6.32195 6.92597 6.18516C6.57597 5.99974 6.32285 5.89766 6.07181 5.86432C5.52422 5.79231 4.97045 5.94068 4.53222 6.27682C4.20514 6.52995 3.96139 6.94974 3.47597 7.79036C2.99056 8.63099 2.74681 9.05078 2.69368 9.46224C2.65789 9.73354 2.67589 10.0092 2.74667 10.2736C2.81745 10.5379 2.93961 10.7857 3.10618 11.0029C3.26035 11.2029 3.47597 11.3706 3.81035 11.581C4.30306 11.8904 4.61972 12.4174 4.61972 12.9987C4.61972 13.5799 4.30306 14.107 3.81035 14.4154C3.47597 14.6268 3.25931 14.7945 3.10618 14.9945C2.93961 15.2117 2.81745 15.4595 2.74667 15.7238C2.67589 15.9882 2.65789 16.2639 2.69368 16.5352C2.74785 16.9456 2.99056 17.3664 3.47493 18.207C3.96139 19.0477 4.2041 19.4674 4.53222 19.7206C4.74934 19.8871 4.99716 20.0093 5.2615 20.0801C5.52584 20.1509 5.80154 20.1689 6.07285 20.1331C6.32285 20.0997 6.57597 19.9977 6.92597 19.8122C7.17654 19.6754 7.45772 19.6045 7.74319 19.6059C8.02867 19.6074 8.30911 19.6812 8.55827 19.8206C9.06139 20.1122 9.36035 20.6487 9.38118 21.2299C9.39577 21.6258 9.43327 21.8966 9.53014 22.1289C9.63484 22.3818 9.78837 22.6117 9.98194 22.8052C10.1755 22.9988 10.4053 23.1523 10.6583 23.257C11.0406 23.4154 11.526 23.4154 12.4968 23.4154C13.4676 23.4154 13.9531 23.4154 14.3353 23.257C14.5883 23.1523 14.8181 22.9988 15.0117 22.8052C15.2052 22.6117 15.3588 22.3818 15.4635 22.1289C15.5593 21.8966 15.5978 21.6258 15.6124 21.2299C15.6333 20.6487 15.9322 20.1112 16.4353 19.8206C16.6845 19.6812 16.9649 19.6074 17.2504 19.6059C17.5359 19.6045 17.8171 19.6754 18.0676 19.8122C18.4176 19.9977 18.6708 20.0997 18.9208 20.1331C19.1921 20.1689 19.4678 20.1509 19.7321 20.0801C19.9965 20.0093 20.2443 19.8871 20.4614 19.7206C20.7895 19.4685 21.0322 19.0477 21.5176 18.207C22.0031 17.3664 22.2468 16.9466 22.2999 16.5352C22.3357 16.2639 22.3177 15.9882 22.2469 15.7238C22.1762 15.4595 22.054 15.2117 21.8874 14.9945C21.7333 14.7945 21.5176 14.6268 21.1833 14.4164C20.9394 14.2679 20.7373 14.0599 20.5957 13.8119C20.4542 13.564 20.3779 13.2842 20.3739 12.9987C20.3739 12.4174 20.6906 11.8904 21.1833 11.582C21.5176 11.3706 21.7343 11.2029 21.8874 11.0029C22.054 10.7857 22.1762 10.5379 22.2469 10.2736C22.3177 10.0092 22.3357 9.73354 22.2999 9.46224C22.2458 9.05182 22.0031 8.63099 21.5187 7.79036C21.0322 6.94974 20.7895 6.52995 20.4614 6.27682C20.2443 6.11025 19.9965 5.98809 19.7321 5.91731C19.4678 5.84653 19.1921 5.82853 18.9208 5.86432C18.6708 5.89766 18.4176 5.99974 18.0666 6.18516C17.8162 6.32176 17.5352 6.39265 17.2499 6.39119C16.9646 6.38974 16.6844 6.31598 16.4353 6.17682C16.1902 6.03067 15.9861 5.82472 15.8422 5.57823C15.6983 5.33175 15.6192 5.05279 15.6124 4.76745C15.5978 4.37161 15.5603 4.10078 15.4635 3.86849C15.3588 3.61555 15.2052 3.38573 15.0117 3.19216C14.8181 2.99859 14.5883 2.84507 14.3353 2.74036Z" stroke="#A1A1A1" stroke-width="1.25"/>
</svg>
