<svg width="25" height="26" viewBox="0 0 25 26" fill="none" xmlns="http://www.w3.org/2000/svg">
<path d="M7.47396 3.88672H13.3698C13.9271 3.88672 14.3906 3.88672 14.7708 3.91797C15.1667 3.94922 15.5375 4.02005 15.8885 4.19922C16.4277 4.47388 16.866 4.91218 17.1406 5.4513C17.3198 5.80234 17.3906 6.17318 17.4219 6.56901C17.4531 6.94922 17.4531 7.41276 17.4531 7.97005V11.1784C17.4531 11.3856 17.3708 11.5843 17.2243 11.7308C17.0778 11.8773 16.8791 11.9596 16.6719 11.9596C16.4647 11.9596 16.266 11.8773 16.1194 11.7308C15.9729 11.5843 15.8906 11.3856 15.8906 11.1784V8.0013C15.8906 7.40547 15.8906 7.00443 15.8646 6.69609C15.8406 6.39714 15.7969 6.25443 15.749 6.16068C15.6243 5.91543 15.4252 5.71597 15.1802 5.59089C15.0854 5.54297 14.9427 5.49922 14.6438 5.47526C14.3354 5.45026 13.9354 5.44922 13.3385 5.44922H7.50521C6.90937 5.44922 6.50833 5.44922 6.2 5.47526C5.90104 5.49922 5.75833 5.54297 5.66458 5.59089C5.41918 5.71579 5.2197 5.91528 5.09479 6.16068C5.04688 6.25443 5.00313 6.39714 4.97917 6.69609C4.95417 7.00443 4.95313 7.40443 4.95313 8.0013V18.0013C4.95313 18.5971 4.95313 18.9982 4.97917 19.3055C5.00313 19.6055 5.04688 19.7482 5.09479 19.8419C5.21354 20.0742 5.39688 20.2648 5.62396 20.3898C5.64063 20.394 5.67743 20.4006 5.73438 20.4096C5.8559 20.4277 6.02118 20.4444 6.23021 20.4596C6.64479 20.4909 7.17813 20.5117 7.74479 20.5253C8.875 20.5534 10.099 20.5534 10.6823 20.5534C10.8895 20.5534 11.0882 20.6357 11.2347 20.7822C11.3812 20.9287 11.4635 21.1274 11.4635 21.3346C11.4635 21.5418 11.3812 21.7405 11.2347 21.8871C11.0882 22.0336 10.8895 22.1159 10.6823 22.1159H10.6802C10.0969 22.1159 8.85729 22.1159 7.70625 22.0878C7.17557 22.0768 6.64522 22.0535 6.11563 22.018C5.9118 22.0046 5.70854 21.9838 5.50625 21.9555C5.31552 21.9333 5.12932 21.882 4.95417 21.8034C4.41575 21.5291 3.97786 21.0916 3.70312 20.5534C3.52396 20.2013 3.45312 19.8305 3.42187 19.4346C3.39062 19.0544 3.39062 18.5909 3.39062 18.0336V7.97005C3.39062 7.41276 3.39062 6.94922 3.42187 6.56901C3.45312 6.17318 3.52396 5.80234 3.70312 5.4513C3.97778 4.91218 4.41609 4.47388 4.95521 4.19922C5.30625 4.02005 5.67708 3.94922 6.07292 3.91797C6.45312 3.88672 6.91667 3.88672 7.47396 3.88672Z" fill="#A1A1A1"/>
<path d="M14.9646 13.2617H19.4C19.8115 13.2617 20.1667 13.2617 20.4594 13.2857C20.7687 13.3107 21.076 13.3669 21.3708 13.5169C21.8125 13.7419 22.1708 14.1003 22.3958 14.5419C22.5458 14.8367 22.6021 15.144 22.6271 15.4534C22.651 15.7451 22.651 16.1013 22.651 16.5128V18.8648C22.651 19.2763 22.651 19.6315 22.6271 19.9242C22.611 20.2403 22.5324 20.5501 22.3958 20.8357C22.1713 21.2769 21.8129 21.6357 21.3719 21.8607C21.076 22.0107 20.7677 22.0669 20.4594 22.0919C20.1677 22.1159 19.8115 22.1159 19.4 22.1159H14.9635C14.5521 22.1159 14.1969 22.1159 13.9042 22.0919C13.5881 22.0758 13.2783 21.9972 12.9927 21.8607C12.5515 21.6362 12.1927 21.2777 11.9677 20.8367C11.831 20.5508 11.7524 20.2407 11.7365 19.9242C11.7125 19.6326 11.7125 19.2763 11.7125 18.8648V16.5117C11.7125 16.1003 11.7125 15.7451 11.7365 15.4523C11.7526 15.1362 11.8312 14.8264 11.9677 14.5409C12.1925 14.0995 12.5513 13.7407 12.9927 13.5159C13.2783 13.3794 13.5881 13.3008 13.9042 13.2846C14.1958 13.2607 14.5521 13.2607 14.9635 13.2607M14.0312 14.8419C13.8187 14.8596 13.7396 14.8888 13.701 14.9086C13.5545 14.9834 13.4352 15.1026 13.3604 15.2492C13.3396 15.2888 13.3115 15.3669 13.2937 15.5794L13.2917 15.6044H21.0708L21.0688 15.5794C21.051 15.3669 21.0219 15.2878 21.0021 15.2492C20.927 15.1025 20.8074 14.9832 20.6604 14.9086C20.6219 14.8878 20.5437 14.8596 20.3313 14.8419C20.0107 14.8243 19.6897 14.818 19.3688 14.8232H14.9937C14.5437 14.8232 14.2521 14.8232 14.0312 14.8419ZM21.0885 17.6888H13.276V18.8346C13.276 19.2846 13.276 19.5763 13.2948 19.7971C13.3125 20.0096 13.3417 20.0888 13.3615 20.1263C13.4361 20.2733 13.5553 20.3929 13.7021 20.468C13.7417 20.4888 13.8198 20.5169 14.0323 20.5346C14.2531 20.5523 14.5448 20.5534 14.9948 20.5534H19.3698C19.8198 20.5534 20.1115 20.5534 20.3323 20.5346C20.5448 20.5169 20.624 20.4878 20.6615 20.468C20.8086 20.393 20.9282 20.2734 21.0031 20.1263C21.024 20.0878 21.0521 20.0096 21.0698 19.7971C21.0875 19.5763 21.0885 19.2846 21.0885 18.8346V17.6888ZM6.76562 7.01172C6.55842 7.01172 6.35971 7.09403 6.2132 7.24054C6.06668 7.38705 5.98438 7.58577 5.98438 7.79297C5.98438 8.00017 6.06668 8.19888 6.2132 8.3454C6.35971 8.49191 6.55842 8.57422 6.76562 8.57422H10.9323C11.1395 8.57422 11.3382 8.49191 11.4847 8.3454C11.6312 8.19888 11.7135 8.00017 11.7135 7.79297C11.7135 7.58577 11.6312 7.38705 11.4847 7.24054C11.3382 7.09403 11.1395 7.01172 10.9323 7.01172H6.76562ZM5.98438 10.918C5.98438 10.7108 6.06668 10.5121 6.2132 10.3655C6.35971 10.219 6.55842 10.1367 6.76562 10.1367H14.0573C14.2645 10.1367 14.4632 10.219 14.6097 10.3655C14.7562 10.5121 14.8385 10.7108 14.8385 10.918C14.8385 11.1252 14.7562 11.3239 14.6097 11.4704C14.4632 11.6169 14.2645 11.6992 14.0573 11.6992H6.76562C6.55842 11.6992 6.35971 11.6169 6.2132 11.4704C6.06668 11.3239 5.98438 11.1252 5.98438 10.918ZM6.76562 13.2617C6.55842 13.2617 6.35971 13.344 6.2132 13.4905C6.06668 13.6371 5.98438 13.8358 5.98438 14.043C5.98438 14.2502 6.06668 14.4489 6.2132 14.5954C6.35971 14.7419 6.55842 14.8242 6.76562 14.8242H10.4115C10.6187 14.8242 10.8174 14.7419 10.9639 14.5954C11.1104 14.4489 11.1927 14.2502 11.1927 14.043C11.1927 13.8358 11.1104 13.6371 10.9639 13.4905C10.8174 13.344 10.6187 13.2617 10.4115 13.2617H6.76562ZM5.98438 18.2096C5.98438 18.0024 6.06668 17.8037 6.2132 17.6572C6.35971 17.5107 6.55842 17.4284 6.76562 17.4284H8.84896C9.05616 17.4284 9.25487 17.5107 9.40139 17.6572C9.5479 17.8037 9.63021 18.0024 9.63021 18.2096C9.63021 18.4168 9.5479 18.6156 9.40139 18.7621C9.25487 18.9086 9.05616 18.9909 8.84896 18.9909H6.76562C6.55842 18.9909 6.35971 18.9086 6.2132 18.7621C6.06668 18.6156 5.98438 18.4168 5.98438 18.2096Z" fill="#A1A1A1"/>
</svg>
