<svg width="20" height="20" viewBox="0 0 20 20" fill="none" xmlns="http://www.w3.org/2000/svg">
<path d="M5.625 9.375H8.125M5.625 11.875H8.125M5.625 14.375H8.125M10.625 9.375H14.375M10.625 11.875H14.375M10.625 14.375H14.375M13.125 0.625V5C13.125 5.35 13.4 5.625 13.75 5.625H18.125M18.125 5.25V18.75C18.125 19.1 17.85 19.375 17.5 19.375H2.5C2.15 19.375 1.875 19.1 1.875 18.75V1.25C1.875 0.9 2.15 0.625 2.5 0.625H13.5625C13.725 0.625 13.8875 0.6875 14.0125 0.8125L17.95 4.8125C18.0625 4.9375 18.125 5.0875 18.125 5.25Z" stroke="#A1A1A1" stroke-width="1.25" stroke-linecap="round"/>
</svg>
