<svg width="25" height="25" viewBox="0 0 25 25" fill="none" xmlns="http://www.w3.org/2000/svg">
<path fill-rule="evenodd" clip-rule="evenodd" d="M13.1252 11.9829L17.1783 16.0361L16.295 16.9204L11.8752 12.5007V6.25065H13.1252V11.9829ZM12.5002 22.9173C6.74704 22.9173 2.0835 18.2538 2.0835 12.5007C2.0835 6.74753 6.74704 2.08398 12.5002 2.08398C18.2533 2.08398 22.9168 6.74753 22.9168 12.5007C22.9168 18.2538 18.2533 22.9173 12.5002 22.9173ZM12.5002 21.6673C14.9313 21.6673 17.2629 20.7015 18.982 18.9825C20.7011 17.2634 21.6668 14.9318 21.6668 12.5007C21.6668 10.0695 20.7011 7.73792 18.982 6.01884C17.2629 4.29976 14.9313 3.33398 12.5002 3.33398C10.069 3.33398 7.73743 4.29976 6.01835 6.01884C4.29927 7.73792 3.3335 10.0695 3.3335 12.5007C3.3335 14.9318 4.29927 17.2634 6.01835 18.9825C7.73743 20.7015 10.069 21.6673 12.5002 21.6673Z" fill="#71717A"/>
</svg>
