<svg width="20" height="20" viewBox="0 0 20 20" fill="none" xmlns="http://www.w3.org/2000/svg">
<path d="M6.03906 5C5.8733 5 5.71433 5.06585 5.59712 5.18306C5.47991 5.30027 5.41406 5.45924 5.41406 5.625V11.875C5.41406 12.0408 5.47991 12.1997 5.59712 12.3169C5.71433 12.4342 5.8733 12.5 6.03906 12.5C6.20482 12.5 6.36379 12.4342 6.481 12.3169C6.59821 12.1997 6.66406 12.0408 6.66406 11.875V5.625C6.66406 5.45924 6.59821 5.30027 6.481 5.18306C6.36379 5.06585 6.20482 5 6.03906 5ZM9.9974 5C9.83163 5 9.67266 5.06585 9.55545 5.18306C9.43824 5.30027 9.3724 5.45924 9.3724 5.625V9.375C9.3724 9.54076 9.43824 9.69973 9.55545 9.81694C9.67266 9.93415 9.83163 10 9.9974 10C10.1632 10 10.3221 9.93415 10.4393 9.81694C10.5565 9.69973 10.6224 9.54076 10.6224 9.375V5.625C10.6224 5.45924 10.5565 5.30027 10.4393 5.18306C10.3221 5.06585 10.1632 5 9.9974 5ZM13.3307 5.625C13.3307 5.45924 13.3966 5.30027 13.5138 5.18306C13.631 5.06585 13.79 5 13.9557 5C14.1215 5 14.2805 5.06585 14.3977 5.18306C14.5149 5.30027 14.5807 5.45924 14.5807 5.625V13.5417C14.5807 13.7074 14.5149 13.8664 14.3977 13.9836C14.2805 14.1008 14.1215 14.1667 13.9557 14.1667C13.79 14.1667 13.631 14.1008 13.5138 13.9836C13.3966 13.8664 13.3307 13.7074 13.3307 13.5417V5.625Z" fill="#4CAF50"/>
<path d="M3.1224 1.66602H16.8724C17.6774 1.66602 18.3307 2.31935 18.3307 3.12435V16.8743C18.3307 17.2611 18.1771 17.6321 17.9036 17.9055C17.6301 18.179 17.2592 18.3327 16.8724 18.3327H3.1224C2.73562 18.3327 2.36469 18.179 2.0912 17.9055C1.81771 17.6321 1.66406 17.2611 1.66406 16.8743V3.12435C1.66406 2.31935 2.3174 1.66602 3.1224 1.66602ZM2.91406 3.12435V16.8743C2.91406 16.9893 3.0074 17.0827 3.1224 17.0827H16.8724C16.9276 17.0827 16.9806 17.0607 17.0197 17.0217C17.0588 16.9826 17.0807 16.9296 17.0807 16.8743V3.12435C17.0807 3.0691 17.0588 3.01611 17.0197 2.97704C16.9806 2.93797 16.9276 2.91602 16.8724 2.91602H3.1224C3.06714 2.91602 3.01415 2.93797 2.97508 2.97704C2.93601 3.01611 2.91406 3.0691 2.91406 3.12435Z" fill="#4CAF50"/>
</svg>
