<svg width="20" height="21" viewBox="0 0 20 21" fill="none" xmlns="http://www.w3.org/2000/svg">
<rect x="0.5" y="1" width="19" height="19" rx="9.5" fill="#DDDDDD" fill-opacity="0.5"/>
<rect x="0.5" y="1" width="19" height="19" rx="9.5" stroke="#333333"/>
<path d="M9.42857 14.4999H14M12.8571 8.21416L13.4286 8.78559M13.7143 6.78559C13.8269 6.8981 13.9163 7.03171 13.9773 7.17879C14.0383 7.32586 14.0696 7.48352 14.0696 7.64273C14.0696 7.80194 14.0383 7.9596 13.9773 8.10667C13.9163 8.25375 13.8269 8.38736 13.7143 8.49987L8.28571 13.9284L6 14.4999L6.57143 12.2462L12.0023 6.78787C12.2163 6.57277 12.5035 6.44602 12.8066 6.43279C13.1098 6.41956 13.4069 6.52081 13.6389 6.71644L13.7143 6.78559Z" stroke="#333333" stroke-width="0.606061" stroke-linecap="round" stroke-linejoin="round"/>
</svg>
